<?xml version="1.0" encoding="UTF-8"?>
<svg version="1.1" xmlns="http://www.w3.org/2000/svg" width="612" height="408">
<path d="M0 0 C39.6852374 -0.97560214 74.3421294 9.98754813 104.75488281 36.06201172 C105.61082031 36.78259766 106.46675781 37.50318359 107.34863281 38.24560547 C113.58556568 43.64517235 118.7121937 49.54928073 123.75488281 56.06201172 C124.48449219 56.95275391 125.21410156 57.84349609 125.96582031 58.76123047 C144.2302397 81.73594748 154.232687 111.81904632 154.75488281 141.06201172 C154.79355469 142.07263672 154.83222656 143.08326172 154.87207031 144.12451172 C155.39966731 167.57326728 150.43549165 191.14783919 139.75488281 212.06201172 C139.42117676 212.72249512 139.0874707 213.38297852 138.74365234 214.06347656 C133.4875611 224.30856631 127.20632328 233.3036708 119.75488281 242.06201172 C118.49417969 243.57021484 118.49417969 243.57021484 117.20800781 245.10888672 C93.20947345 272.59811699 59.40766973 289.34494771 23.17407227 292.89868164 C7.21073683 293.97643635 -8.62640988 293.59355823 -24.24511719 290.06201172 C-25.26605469 289.84520752 -25.26605469 289.84520752 -26.30761719 289.62402344 C-63.64271713 281.64258517 -96.58356572 256.90028333 -117.24511719 225.06201172 C-119.45976173 221.14666968 -121.36865438 217.14710623 -123.24511719 213.06201172 C-124.07704517 211.51958623 -124.91035669 209.97790609 -125.74511719 208.43701172 C-142.9987614 173.92972329 -142.96893543 133.15801729 -131.24511719 97.06201172 C-124.79386914 79.10919006 -114.99491048 63.15997047 -102.24511719 49.06201172 C-101.21257812 47.83224609 -101.21257812 47.83224609 -100.15917969 46.57763672 C-95.12275257 40.61615155 -89.39984569 35.83691908 -83.24511719 31.06201172 C-82.57738281 30.52833984 -81.90964844 29.99466797 -81.22167969 29.44482422 C-58.03005186 11.34165482 -29.34075622 0.81041236 0 0 Z M-56.24511719 41.06201172 C-57.23511719 41.84318359 -58.22511719 42.62435547 -59.24511719 43.42919922 C-77.16867088 59.15898462 -88.48705508 84.45952271 -90.24511719 108.06201172 C-91.27228035 126.58355693 -88.57293847 143.04210983 -81.24511719 160.06201172 C-80.58382812 161.63402344 -80.58382812 161.63402344 -79.90917969 163.23779297 C-69.86136072 185.16294708 -49.06004245 203.5108795 -26.60058594 211.85888672 C-1.01472975 220.81004795 26.70213211 219.5592215 51.31738281 208.24951172 C61.74112832 202.54902589 71.51722808 194.64019942 79.75488281 186.06201172 C79.75488281 185.40201172 79.75488281 184.74201172 79.75488281 184.06201172 C80.41488281 184.06201172 81.07488281 184.06201172 81.75488281 184.06201172 C100.65116496 163.03384133 106.62122833 136.46282738 105.56738281 108.93701172 C104.1701872 82.83282316 91.59798426 60.06643368 73.04785156 42.03466797 C68.26667901 37.92139346 63.04521766 34.47513097 57.75488281 31.06201172 C57.00464844 30.57732422 56.25441406 30.09263672 55.48144531 29.59326172 C19.78162633 8.25543888 -25.0258084 15.41429049 -56.24511719 41.06201172 Z " fill="#EC0101" transform="translate(298.2451171875,56.93798828125)"/>
<path d="M0 0 C0.92941406 -0.00773437 1.85882813 -0.01546875 2.81640625 -0.0234375 C20.30219291 0.02533736 35.5864837 6.58228859 48.44140625 18.375 C56.68174457 27.14749324 62.72077517 37.72948772 66.125 49.25 C66.38651855 50.1306311 66.38651855 50.1306311 66.65332031 51.02905273 C67.70829507 55.99649859 67.39675833 61.19260026 67.4375 66.25 C67.46650391 67.41917969 67.49550781 68.58835937 67.52539062 69.79296875 C67.64914706 86.94751499 59.94941346 101.81980643 48.41723633 114.18334961 C43.86457639 118.80206991 38.75241524 122.1032055 33.125 125.25 C32.32578125 125.76046875 31.5265625 126.2709375 30.703125 126.796875 C16.67104988 134.70586279 -3.22105057 134.36591738 -18.5 130.75 C-34.8960916 125.95443871 -47.86654625 114.5077407 -56.875 100.25 C-65.36176146 84.25166396 -68.12241892 65.28110554 -63.53979492 47.56640625 C-60.84550683 38.8817776 -56.21037148 31.52550656 -50.875 24.25 C-50.34390625 23.49203125 -49.8128125 22.7340625 -49.265625 21.953125 C-42.15797033 12.79377619 -29.89377188 5.49392644 -18.875 2.25 C-17.09029297 1.71632813 -17.09029297 1.71632813 -15.26953125 1.171875 C-10.19300985 -0.06811904 -5.20111391 -0.04292529 0 0 Z " fill="#ED0101" transform="translate(304.875,85.75)"/>
<path d="M0 0 C39.6852374 -0.97560214 74.3421294 9.98754813 104.75488281 36.06201172 C105.61082031 36.78259766 106.46675781 37.50318359 107.34863281 38.24560547 C113.58556568 43.64517235 118.7121937 49.54928073 123.75488281 56.06201172 C124.48449219 56.95275391 125.21410156 57.84349609 125.96582031 58.76123047 C144.2302397 81.73594748 154.232687 111.81904632 154.75488281 141.06201172 C154.79355469 142.07263672 154.83222656 143.08326172 154.87207031 144.12451172 C155.39966731 167.57326728 150.43549165 191.14783919 139.75488281 212.06201172 C139.42117676 212.72249512 139.0874707 213.38297852 138.74365234 214.06347656 C133.4875611 224.30856631 127.20632328 233.3036708 119.75488281 242.06201172 C118.91441406 243.06748047 118.07394531 244.07294922 117.20800781 245.10888672 C93.20947345 272.59811699 59.40766973 289.34494771 23.17407227 292.89868164 C7.54855078 293.95362905 -9.03044338 294.26049133 -24.24511719 290.06201172 C-24.57511719 289.40201172 -24.90511719 288.74201172 -25.24511719 288.06201172 C-24.38917969 288.20638672 -23.53324219 288.35076172 -22.65136719 288.49951172 C18.54599828 294.43193235 59.68011331 287.92072409 93.75488281 263.06201172 C111.03037101 249.81269535 124.56001158 234.24070036 134.75488281 215.06201172 C135.30015625 214.05267578 135.84542969 213.04333984 136.40722656 212.00341797 C145.25162351 195.05728335 150.84349794 175.99263069 150.95800781 156.81982422 C150.96370789 156.05258026 150.96940796 155.2853363 150.97528076 154.49484253 C150.98467006 152.87629547 150.99124037 151.25772981 150.99511719 149.63916016 C151.00472092 147.22766236 151.03575927 144.81705661 151.06738281 142.40576172 C151.16771211 127.91665412 149.68965112 113.59094675 144.56738281 99.93701172 C144.26767578 99.11209229 143.96796875 98.28717285 143.65917969 97.43725586 C130.13720789 61.24507104 103.71003468 32.19345161 68.68066406 15.80419922 C59.33480366 11.59519018 49.9135194 8.15768585 39.94238281 5.74951172 C39.28568604 5.58999023 38.62898926 5.43046875 37.95239258 5.26611328 C1.11908797 -3.01760869 -38.58437621 5.30001969 -70.24511719 25.06201172 C-101.79587152 45.25217092 -120.13546778 74.24676968 -132.24511719 109.06201172 C-132.57511719 109.06201172 -132.90511719 109.06201172 -133.24511719 109.06201172 C-131.0011154 86.62199385 -117.40474584 65.15154626 -102.24511719 49.06201172 C-100.88808479 47.46026856 -99.53358883 45.85637005 -98.18261719 44.24951172 C-93.70697877 39.24349619 -88.53791533 35.16822385 -83.24511719 31.06201172 C-82.57738281 30.52833984 -81.90964844 29.99466797 -81.22167969 29.44482422 C-58.03005186 11.34165482 -29.34075622 0.81041236 0 0 Z " fill="#FC6968" transform="translate(298.2451171875,56.93798828125)"/>
<path d="M0 0 C0.92941406 -0.00773437 1.85882813 -0.01546875 2.81640625 -0.0234375 C20.30219291 0.02533736 35.5864837 6.58228859 48.44140625 18.375 C56.68174457 27.14749324 62.72077517 37.72948772 66.125 49.25 C66.38651855 50.1306311 66.38651855 50.1306311 66.65332031 51.02905273 C67.70829507 55.99649859 67.39675833 61.19260026 67.4375 66.25 C67.46650391 67.41917969 67.49550781 68.58835937 67.52539062 69.79296875 C67.64914706 86.94751499 59.94941346 101.81980643 48.41723633 114.18334961 C43.86457639 118.80206991 38.75241524 122.1032055 33.125 125.25 C32.32578125 125.76046875 31.5265625 126.2709375 30.703125 126.796875 C16.6683214 134.70740067 -3.21813767 134.3621796 -18.5 130.75 C-25.80943255 128.6269283 -36.1236921 124.830212 -40.2265625 118 C-40.44054687 117.4225 -40.65453125 116.845 -40.875 116.25 C-39.96234375 116.90355469 -39.96234375 116.90355469 -39.03125 117.5703125 C-33.45505954 121.3588419 -27.91452006 124.26716268 -21.625 126.625 C-20.96435547 126.87523926 -20.30371094 127.12547852 -19.62304688 127.38330078 C-5.04796106 132.63193654 12.71388953 131.74063638 26.8125 125.5 C32.22985023 122.83998372 37.28787185 119.85895108 42.125 116.25 C42.94226563 115.64027344 43.75953125 115.03054687 44.6015625 114.40234375 C54.96362505 105.56411392 63.11724007 90.55906636 64.9140625 77.04296875 C66.43899331 56.85175528 62.45454371 39.02917839 49.08203125 23.35546875 C38.84746014 12.34462278 24.9955116 4.21976937 9.77587891 3.07299805 C-6.63648237 2.6581438 -21.04844453 3.32629323 -34.875 13.25 C-35.65488281 13.79785156 -36.43476563 14.34570312 -37.23828125 14.91015625 C-48.9365903 23.54134562 -55.96989196 34.68881894 -60.875 48.25 C-61.535 47.59 -62.195 46.93 -62.875 46.25 C-59.70341736 37.51289976 -55.63949534 30.51928328 -49.875 23.25 C-49.43929687 22.62609375 -49.00359375 22.0021875 -48.5546875 21.359375 C-41.88412239 12.38138171 -29.43782377 5.35969532 -18.875 2.25 C-17.09029297 1.71632813 -17.09029297 1.71632813 -15.26953125 1.171875 C-10.19300985 -0.06811904 -5.20111391 -0.04292529 0 0 Z " fill="#F85F62" transform="translate(304.875,85.75)"/>
<path d="M0 0 C0.33 0 0.66 0 1 0 C4.67554697 27.10715887 -0.58174351 55.68326275 -13 80 C-13.33370605 80.6604834 -13.66741211 81.3209668 -14.01123047 82.00146484 C-19.26732172 92.24655459 -25.54855953 101.24165909 -33 110 C-33.84046875 111.00546875 -34.6809375 112.0109375 -35.546875 113.046875 C-59.54540936 140.53610527 -93.34721308 157.28293599 -129.58081055 160.83666992 C-145.20633203 161.89161733 -161.78532619 162.19847961 -177 158 C-177.33 157.34 -177.66 156.68 -178 156 C-177.1440625 156.144375 -176.288125 156.28875 -175.40625 156.4375 C-134.20888453 162.36992063 -93.0747695 155.85871237 -59 131 C-41.7245118 117.75068363 -28.19487123 102.17868864 -18 83 C-17.45472656 81.99066406 -16.90945313 80.98132813 -16.34765625 79.94140625 C-5.630709 59.40740808 -2.02166222 38.48817157 -1.44775391 15.60424805 C-1.39599958 13.59413831 -1.33870558 11.5841736 -1.28125 9.57421875 C-1.25095703 8.38401123 -1.22066406 7.19380371 -1.18945312 5.9675293 C-1 3 -1 3 0 0 Z " fill="#FC5A5C" transform="translate(451,189)"/>
<path d="M0 0 C0.33 0 0.66 0 1 0 C0.01608504 18.69438417 -9.78466774 37.18566502 -22 51 C-22.47695313 51.60714844 -22.95390625 52.21429688 -23.4453125 52.83984375 C-33.26738573 65.21565602 -48.36229887 74.45033723 -63 80 C-64.19882812 80.46664062 -65.39765625 80.93328125 -66.6328125 81.4140625 C-76.4288399 84.84532604 -85.90556243 85.46621756 -96.25 85.5 C-97.49241455 85.50620361 -98.7348291 85.51240723 -100.01489258 85.51879883 C-122.78678361 85.20978727 -143.80903791 76.84943449 -161 62 C-161.68578125 61.44699219 -162.3715625 60.89398438 -163.078125 60.32421875 C-170.54749266 54.16346078 -176.90268716 46.80211371 -181 38 C-177.11725906 39.29424698 -175.84164657 41.68066615 -173.5625 44.875 C-159.4689826 63.74866835 -138.339648 77.15048273 -115.08984375 81.55078125 C-89.07926753 84.97698995 -63.39571088 81.35871298 -41.875 65.6875 C-32.26579605 58.88654256 -32.26579605 58.88654256 -25 50 C-24.34 50 -23.68 50 -23 50 C-22.75507813 49.45472656 -22.51015625 48.90945312 -22.2578125 48.34765625 C-20.72304261 45.48307022 -18.82259132 43.03994346 -16.875 40.4375 C-8.31714219 28.47042844 -3.51530265 14.17684557 0 0 Z " fill="#FD5657" transform="translate(403,191)"/>
<path d="M0 0 C0.33 0 0.66 0 1 0 C0.93506348 0.54422607 0.87012695 1.08845215 0.80322266 1.64916992 C-4.01053758 45.27109143 -0.98612467 88.65461459 27.12597656 124.33789062 C37.17710777 136.73351202 48.452053 147.15025455 61 157 C60.34 157.33 59.68 157.66 59 158 C45.08447005 147.65313015 33.29607276 137.00417246 23 123 C22.31808594 122.08863281 21.63617188 121.17726563 20.93359375 120.23828125 C17.5043618 115.52030986 14.67265381 110.73902172 12.17578125 105.46875 C11.42210082 103.88627149 10.63058609 102.32094789 9.79296875 100.78125 C-5.22512757 72.93817619 -10.45515116 34.47209705 -1.375 3.875 C-0.93373026 2.57740482 -0.48335873 1.28251182 0 0 Z " fill="#FB6F70" transform="translate(164,167)"/>
<path d="M0 0 C-2.41450714 1.60967142 -4.3093495 2.61535955 -6.95703125 3.6640625 C-44.98816898 19.0123854 -74.56882212 45.04315341 -91 83 C-93.51219692 89.26854085 -95.78175031 95.62253213 -98 102 C-98.33 102 -98.66 102 -99 102 C-96.75599821 79.55998213 -83.15962865 58.08953454 -68 42 C-66.6429676 40.39825685 -65.28847164 38.79435833 -63.9375 37.1875 C-59.46186159 32.18148448 -54.29279815 28.10621213 -49 24 C-48.33226562 23.46632813 -47.66453125 22.93265625 -46.9765625 22.3828125 C-35.29421805 13.26368286 -15.49482283 -0.72068943 0 0 Z " fill="#FD7475" transform="translate(264,64)"/>
<path d="M0 0 C0.33 0 0.66 0 1 0 C1.11789773 4.24975959 1.18781321 8.49908905 1.25 12.75 C1.28351563 13.93722656 1.31703125 15.12445313 1.3515625 16.34765625 C1.5402211 33.60991855 -6.09838531 48.48703968 -17.70776367 60.93334961 C-22.26042361 65.55206991 -27.37258476 68.8532055 -33 72 C-33.79921875 72.51046875 -34.5984375 73.0209375 -35.421875 73.546875 C-49.4566786 81.45740067 -69.34313767 81.1121796 -84.625 77.5 C-91.93443255 75.3769283 -102.2486921 71.580212 -106.3515625 64.75 C-106.67253906 63.88375 -106.67253906 63.88375 -107 63 C-106.3915625 63.43570313 -105.783125 63.87140625 -105.15625 64.3203125 C-99.58005954 68.1088419 -94.03952006 71.01716268 -87.75 73.375 C-87.08935547 73.62523926 -86.42871094 73.87547852 -85.74804688 74.13330078 C-71.17296106 79.38193654 -53.41111047 78.49063638 -39.3125 72.25 C-33.89514977 69.58998372 -28.83712815 66.60895108 -24 63 C-23.18273437 62.39027344 -22.36546875 61.78054687 -21.5234375 61.15234375 C-11.2930834 52.42645349 -3.09869827 37.51973041 -1.1953125 24.17578125 C-0.87152018 18.91091817 -0.8877724 13.64494873 -0.98461914 8.37207031 C-1.09436406 2.18872812 -1.09436406 2.18872812 0 0 Z " fill="#FD4445" transform="translate(371,139)"/>
<path d="M0 0 C0.88945312 0.30744141 0.88945312 0.30744141 1.796875 0.62109375 C-33.18127177 21.30086559 -70.32545854 31.33588582 -111.1171875 23.47265625 C-112.13554687 23.19164062 -113.15390625 22.910625 -114.203125 22.62109375 C-114.533125 21.96109375 -114.863125 21.30109375 -115.203125 20.62109375 C-113.91921875 20.83765625 -113.91921875 20.83765625 -112.609375 21.05859375 C-75.84682911 26.35240036 -36.9959701 22.50956098 -5.453125 1.55859375 C-2.203125 -0.37890625 -2.203125 -0.37890625 0 0 Z " fill="#FD3739" transform="translate(388.203125,324.37890625)"/>
<path d="M0 0 C3.88274094 1.29424698 5.15835343 3.68066615 7.4375 6.875 C21.41448125 25.5926062 42.74733657 39.49060991 65.953125 43.51171875 C71.75309979 44.2894302 77.60393609 44.63285945 83.4375 45.0625 C84.64599609 45.15337891 85.85449219 45.24425781 87.09960938 45.33789062 C90.06625653 45.56068231 93.03304725 45.78132212 96 46 C96 46.33 96 46.66 96 47 C67.00201301 47.63778564 42.73580416 43.63903083 20 24 C19.31421875 23.44699219 18.6284375 22.89398438 17.921875 22.32421875 C10.45250734 16.16346078 4.09731284 8.80211371 0 0 Z " fill="#FD6E6A" transform="translate(222,229)"/>
<path d="M0 0 C16.00834511 -0.3964714 32.45907158 -0.10419945 47.77246094 5.05761719 C45.27034369 6.6961195 44.14510973 7.1179719 41.14355469 6.63183594 C40.17546875 6.33921875 39.20738281 6.04660156 38.20996094 5.74511719 C16.78097897 -0.68066981 -10.354846 1.78786502 -31.65332031 7.66699219 C-34.22753906 8.05761719 -34.22753906 8.05761719 -37.22753906 6.05761719 C-24.73043901 2.81080405 -12.94809096 0.33491336 0 0 Z " fill="#FA5F5F" transform="translate(298.2275390625,56.9423828125)"/>
<path d="M0 0 C0.33 0 0.66 0 1 0 C0.90150757 0.80981323 0.90150757 0.80981323 0.80102539 1.63598633 C-0.0143457 8.94587427 -0.29319628 16.25465273 -0.50268555 23.60229492 C-0.56190224 25.66666142 -0.62720216 27.73076743 -0.69335938 29.79492188 C-0.97244167 38.86610924 -1.05155116 47.92454121 -1 57 C-1.99 56.67 -2.98 56.34 -4 56 C-6.24677479 37.86403387 -6.52959571 17.32519394 0 0 Z " fill="#EB4F4F" transform="translate(164,167)"/>
<path d="M0 0 C0.89203125 0.00902344 1.7840625 0.01804687 2.703125 0.02734375 C3.37859375 0.03894531 4.0540625 0.05054687 4.75 0.0625 C4.75 0.3925 4.75 0.7225 4.75 1.0625 C3.11804688 1.39121094 3.11804688 1.39121094 1.453125 1.7265625 C-16.92665609 5.6127772 -32.04580267 13.57779644 -42.87109375 29.4375 C-46.39101195 35.05532456 -48.99778218 40.83578014 -51.25 47.0625 C-51.91 46.4025 -52.57 45.7425 -53.25 45.0625 C-50.07841736 36.32539976 -46.01449534 29.33178328 -40.25 22.0625 C-39.81429687 21.43859375 -39.37859375 20.8146875 -38.9296875 20.171875 C-30.7117661 9.11127639 -13.7699153 -0.1811831 0 0 Z " fill="#FD8482" transform="translate(295.25,86.9375)"/>
<path d="M0 0 C10.80207223 13.51095102 16.33683653 30.87076958 19.9375 47.5 C20.16139404 48.51505615 20.38528809 49.5301123 20.6159668 50.57592773 C21.80088677 56.42323971 22.12505784 61.13013303 21 67 C20.67 67 20.34 67 20 67 C19.87322876 66.02111816 19.87322876 66.02111816 19.74389648 65.02246094 C16.74800469 42.6170357 10.73247403 23.40672093 -0.29296875 3.6875 C-0.52628906 3.130625 -0.75960938 2.57375 -1 2 C-0.67 1.34 -0.34 0.68 0 0 Z " fill="#FD6A69" transform="translate(430,125)"/>
<path d="M0 0 C1.32 0 2.64 0 4 0 C4 0.66 4 1.32 4 2 C5.32 2 6.64 2 8 2 C8 3.65 8 5.3 8 7 C8.66 7.33 9.32 7.66 10 8 C10.33 7.01 10.66 6.02 11 5 C11.33 5.99 11.66 6.98 12 8 C14.01508358 8.73323796 14.01508358 8.73323796 16 9 C16 9.66 16 10.32 16 11 C16.66 11 17.32 11 18 11 C17.67 12.65 17.34 14.3 17 16 C17.99 16.33 18.98 16.66 20 17 C20.33 17.99 20.66 18.98 21 20 C13.30060989 16.49098592 6.50622666 9.31636973 1 3 C0.67 2.01 0.34 1.02 0 0 Z " fill="#E10708" transform="translate(196,297)"/>
<path d="M0 0 C0.33 0 0.66 0 1 0 C2.79312326 13.22428402 1.76324377 25.854388 0 39 C-2.43462088 35.34806869 -2.18679367 32.79263571 -2.01171875 28.59375 C-1.98906448 27.87264038 -1.96641022 27.15153076 -1.94306946 26.40856934 C-1.89315805 24.88532875 -1.83820056 23.36224633 -1.77856445 21.83935547 C-1.68785168 19.50903425 -1.61310477 17.17862048 -1.54101562 14.84765625 C-1.49052215 13.36715518 -1.43912032 11.88668476 -1.38671875 10.40625 C-1.36373215 9.7093103 -1.34074554 9.01237061 -1.31706238 8.29431152 C-1.19529662 5.29278439 -0.95643426 2.86930279 0 0 Z " fill="#F13638" transform="translate(451,189)"/>
<path d="M0 0 C0.99 0 1.98 0 3 0 C3 9.24 3 18.48 3 28 C2.34 28 1.68 28 1 28 C-0.35700647 25.28598706 -0.1123861 23.15153684 -0.09765625 20.1171875 C-0.09443359 18.95058594 -0.09121094 17.78398437 -0.08789062 16.58203125 C-0.07951172 15.35871094 -0.07113281 14.13539063 -0.0625 12.875 C-0.05798828 11.64394531 -0.05347656 10.41289062 -0.04882812 9.14453125 C-0.0370133 6.09630608 -0.02054028 3.04817686 0 0 Z " fill="#E53F3F" transform="translate(205,160)"/>
<path d="M0 0 C0.66 0 1.32 0 2 0 C0.67887352 3.52747478 -0.91913134 6.83105471 -2.66601562 10.16601562 C-7.68968707 19.80032244 -11.43467592 29.74969327 -15 40 C-15.33 40 -15.66 40 -16 40 C-15.46703156 34.52496053 -14.4747686 29.65408043 -12.5 24.5 C-12.24589355 23.82582031 -11.99178711 23.15164062 -11.72998047 22.45703125 C-8.61677816 14.54514658 -4.35630103 7.27986306 0 0 Z " fill="#FC7473" transform="translate(181,126)"/>
<path d="M0 0 C0.99 0.33 1.98 0.66 3 1 C2.57332031 1.38027344 2.14664063 1.76054688 1.70703125 2.15234375 C-5.88379429 9.30493607 -14.29757249 18.59514498 -19 28 C-19.99 27.67 -20.98 27.34 -22 27 C-15.458146 17.4935596 -8.17523283 8.17523283 0 0 Z " fill="#FA787D" transform="translate(203,98)"/>
<path d="M0 0 C4.78480889 1.34956148 8.56589656 3.42236836 12.5625 6.3125 C13.46125854 6.95868286 13.46125854 6.95868286 14.37817383 7.61791992 C18.97624247 11.02717553 23.13654951 14.77309562 27.1875 18.8125 C27.72769775 19.35108643 28.26789551 19.88967285 28.82446289 20.44458008 C31.71212657 23.41512997 34.03663532 26.3498959 36 30 C31.96169748 28.4410274 29.62908619 25.56603256 26.875 22.375 C19.56469788 14.17908319 11.43775539 8.05287343 2.0546875 2.34765625 C1.37664062 1.90292969 0.69859375 1.45820312 0 1 C0 0.67 0 0.34 0 0 Z " fill="#FE3336" transform="translate(350,84)"/>
<path d="M0 0 C0.99 0.495 0.99 0.495 2 1 C2.68039601 3.24916933 3.26823112 5.5265707 3.8125 7.8125 C5.3256601 13.89269194 7.30432046 19.50914661 9.828125 25.2578125 C11.47103795 29.10222881 12.73841495 33.0160472 14 37 C7.31887876 31.03047747 4.60235712 21.41704906 2.125 13.0625 C1.9098877 12.3411084 1.69477539 11.6197168 1.47314453 10.87646484 C0.42735697 7.17166076 -0.2564182 3.85381475 0 0 Z " fill="#FE4546" transform="translate(208,191)"/>
<path d="M0 0 C8.34484999 7.73016238 15.47312086 20.22853273 16.25 31.6875 C16.1675 32.450625 16.085 33.21375 16 34 C13.48527753 31.48527753 13.26337031 29.62059463 12.375 26.1875 C10.12273922 18.51786955 6.43507747 12.58541806 2 6 C0 3 0 3 0 0 Z " fill="#FC6C6C" transform="translate(355,107)"/>
<path d="M0 0 C0.33 0 0.66 0 1 0 C1.92329084 4.68973124 2.15186484 9.23596815 2.125 14 C2.12886719 14.68578125 2.13273437 15.3715625 2.13671875 16.078125 C2.12893603 20.15626809 1.78754506 23.99977115 1 28 C0.34 27.67 -0.32 27.34 -1 27 C-1.02898816 23.06251542 -1.04679464 19.12505821 -1.0625 15.1875 C-1.07087891 14.06794922 -1.07925781 12.94839844 -1.08789062 11.79492188 C-1.09111328 10.72177734 -1.09433594 9.64863281 -1.09765625 8.54296875 C-1.10289307 7.55321045 -1.10812988 6.56345215 -1.11352539 5.54370117 C-1 3 -1 3 0 0 Z " fill="#F85858" transform="translate(404,160)"/>
<path d="M0 0 C3.40273032 1.45506508 5.42853861 3.30322768 7.9375 6 C12.21862555 10.40977373 16.81334439 14.08817146 21.74584961 17.72460938 C25.9058698 20.8117396 25.9058698 20.8117396 27 23 C20.59345932 20.80314314 16.06947627 16.35394433 11 12 C10.04222656 11.17886719 9.08445313 10.35773438 8.09765625 9.51171875 C1.13648649 3.40945946 1.13648649 3.40945946 0 0 Z " fill="#FE5E5E" transform="translate(198,302)"/>
<path d="M0 0 C9.90424726 2.68901148 18.82004204 6.47985473 28 11 C27.34 11.66 26.68 12.32 26 13 C25.47156494 12.7733667 24.94312988 12.5467334 24.39868164 12.31323242 C21.95484984 11.26762743 19.50870252 10.2275459 17.0625 9.1875 C16.23169922 8.83107422 15.40089844 8.47464844 14.54492188 8.10742188 C9.10499381 5.80021503 3.6357636 3.77635179 -2 2 C-1.34 1.34 -0.68 0.68 0 0 Z " fill="#FD8384" transform="translate(346,62)"/>
<path d="M0 0 C2.22790822 2.22790822 3.28221808 4.53426729 4.61474609 7.35913086 C10.21186998 19.97604592 10.21186998 19.97604592 20 29 C20 29.66 20 30.32 20 31 C10.6149024 27.30218505 4.81758577 15.50593919 0.9609375 6.8125 C0 4 0 4 0 0 Z " fill="#FD5759" transform="translate(243,171)"/>
<path d="M0 0 C2.82091447 2.68600117 5.08175355 5.39368126 7.25 8.625 C10.91271766 13.96414592 14.89871584 18.99323752 19 24 C16 24 16 24 14.4921875 22.70703125 C10.78163047 18.36012265 7.35644312 13.85446297 4.0625 9.1875 C3.6607959 8.62458252 3.2590918 8.06166504 2.84521484 7.48168945 C0 3.35990257 0 3.35990257 0 0 Z " fill="#FD6768" transform="translate(180,277)"/>
<path d="M0 0 C0.33 0.99 0.66 1.98 1 3 C-0.30499549 5.08979692 -1.63650416 6.98605697 -3.125 8.9375 C-7.50664866 14.92424803 -10.48806152 20.99434243 -13 28 C-13.66 27.34 -14.32 26.68 -15 26 C-11.82761072 17.26067761 -7.68914642 10.3217933 -2 3 C-1.34 2.01 -0.68 1.02 0 0 Z " fill="#FC5C5A" transform="translate(257,106)"/>
<path d="M0 0 C0.66 0 1.32 0 2 0 C2.05893685 3.9374352 2.09390669 7.87475427 2.125 11.8125 C2.14175781 12.91271484 2.15851563 14.01292969 2.17578125 15.14648438 C2.21813455 22.32536862 1.56258545 28.99126695 0 36 C-0.33 36 -0.66 36 -1 36 C-1.33 33.03 -1.66 30.06 -2 27 C-1.67 27 -1.34 27 -1 27 C-0.20293232 23.50007304 0.11863027 20.2857769 0.09765625 16.69921875 C0.09443359 15.72275391 0.09121094 14.74628906 0.08789062 13.74023438 C0.07951172 12.73283203 0.07113281 11.72542969 0.0625 10.6875 C0.05798828 9.66076172 0.05347656 8.63402344 0.04882812 7.57617188 C0.03708184 5.05072118 0.02065565 2.52539095 0 0 Z " fill="#DC1214" transform="translate(405,160)"/>
<path d="M0 0 C0 4.09721431 -2.14933992 6.02803297 -4.625 9.0625 C-8.91305853 14.45565768 -12.64903015 19.96552991 -16 26 C-16.33 25.34 -16.66 24.68 -17 24 C-15.85546875 21.46875 -15.85546875 21.46875 -14.1875 18.5 C-13.64480469 17.5203125 -13.10210937 16.540625 -12.54296875 15.53125 C-11 13 -11 13 -9 11 C-8.773125 10.2575 -8.54625 9.515 -8.3125 8.75 C-6.43411088 4.81432757 -3.39575 2.64214773 0 0 Z " fill="#F92327" transform="translate(234,104)"/>
<path d="M0 0 C-2.47944469 1.65296313 -4.59324382 2.76506632 -7.30859375 3.91015625 C-8.13810547 4.26013672 -8.96761719 4.61011719 -9.82226562 4.97070312 C-10.68529297 5.33099609 -11.54832031 5.69128906 -12.4375 6.0625 C-13.29666016 6.42666016 -14.15582031 6.79082031 -15.04101562 7.16601562 C-18.67362896 8.69064232 -22.14805448 10.13024107 -26 11 C-26 10.34 -26 9.68 -26 9 C-23.60496313 7.87327825 -21.2090129 6.74857442 -18.8125 5.625 C-18.13896484 5.30789062 -17.46542969 4.99078125 -16.77148438 4.6640625 C-6.19633684 -0.28820171 -6.19633684 -0.28820171 0 0 Z " fill="#FE9091" transform="translate(264,64)"/>
<path d="M0 0 C4.7783014 0.52688495 8.21182805 2.77171087 12.125 5.375 C12.74503906 5.77460937 13.36507813 6.17421875 14.00390625 6.5859375 C16.93502197 8.5021938 19.67171057 10.36580393 22 13 C17.1806136 12.48690943 13.78570865 10.15928188 9.875 7.5 C5.18361164 4.28680892 5.18361164 4.28680892 0 2 C0 1.34 0 0.68 0 0 Z " fill="#FC6160" transform="translate(373,74)"/>
<path d="M0 0 C0.57540527 0.06566162 1.15081055 0.13132324 1.74365234 0.19897461 C8.69869831 0.94843484 15.63627546 1.3035011 22.625 1.5625 C23.72457031 1.60568359 24.82414062 1.64886719 25.95703125 1.69335938 C28.63792882 1.79826406 31.31890001 1.90042726 34 2 C34 2.33 34 2.66 34 3 C17.665 3.495 17.665 3.495 1 4 C0.67 2.68 0.34 1.36 0 0 Z " fill="#E02526" transform="translate(282,274)"/>
<path d="M0 0 C4.81449909 0.91262953 7.56978958 3.67616354 11.1875 6.8125 C11.82880859 7.34681641 12.47011719 7.88113281 13.13085938 8.43164062 C13.74123047 8.95564453 14.35160156 9.47964844 14.98046875 10.01953125 C15.81421021 10.73266479 15.81421021 10.73266479 16.66479492 11.46020508 C18.2283415 13.26332964 18.60046342 14.6720335 19 17 C18.0925 16.21625 17.185 15.4325 16.25 14.625 C13.80926882 12.52647443 11.34784737 10.45640107 8.86328125 8.41015625 C8.04778809 7.73702393 8.04778809 7.73702393 7.21582031 7.05029297 C6.11693561 6.14450821 5.01603088 5.24116835 3.91308594 4.34033203 C2.59038056 3.24874226 1.29261578 2.12705908 0 1 C0 0.67 0 0.34 0 0 Z " fill="#FD7C7C" transform="translate(393,87)"/>
<path d="M0 0 C0 0.33 0 0.66 0 1 C-2.87456281 1.64783124 -5.74961759 2.29332518 -8.625 2.9375 C-9.43324219 3.11990234 -10.24148438 3.30230469 -11.07421875 3.49023438 C-13.38031552 4.00582512 -15.68946589 4.50473707 -18 5 C-19.68222656 5.37318359 -19.68222656 5.37318359 -21.3984375 5.75390625 C-24 6 -24 6 -27 4 C-17.90161486 1.4428629 -9.55052847 -0.72843014 0 0 Z " fill="#FE888B" transform="translate(288,59)"/>
<path d="M0 0 C2.18199395 2.18199395 2.74811913 3.63749485 3.8125 6.5 C5.87832921 11.84776919 8.36027993 16.91529331 11 22 C10.34 22.33 9.68 22.66 9 23 C4.86607977 15.87587747 1.57376822 8.82728334 -1 1 C-0.67 0.67 -0.34 0.34 0 0 Z " fill="#FB5556" transform="translate(170,255)"/>
<path d="M0 0 C3.26008643 3.16952847 6.22237877 6.39937989 9 10 C5.98968256 10.93423645 5.13349732 11.04449911 2 10 C-0.28341107 6.75515269 -0.17615457 3.87540045 0 0 Z " fill="#E30809" transform="translate(225,235)"/>
<path d="M0 0 C0 3.69418201 -1.28179295 5.77836178 -3 9 C-3.66 9 -4.32 9 -5 9 C-5.33 10.32 -5.66 11.64 -6 13 C-6.66 13 -7.32 13 -8 13 C-8 13.99 -8 14.98 -8 16 C-8.66 16 -9.32 16 -10 16 C-10 16.99 -10 17.98 -10 19 C-10.66 19 -11.32 19 -12 19 C-10.64891284 14.0755457 -8.55772192 10.70923067 -5.4375 6.6875 C-5.02564453 6.15060547 -4.61378906 5.61371094 -4.18945312 5.06054688 C-1.26506696 1.26506696 -1.26506696 1.26506696 0 0 Z " fill="#D61112" transform="translate(259,107)"/>
<path d="M0 0 C6.5447137 2.85282392 13.00735067 7.011026 17 13 C14.75 12.8125 14.75 12.8125 12 12 C11.38125 11.195625 10.7625 10.39125 10.125 9.5625 C7.40772892 6.28579076 5.08662882 5.86447917 1 5 C1.33 4.01 1.66 3.02 2 2 C1.34 2 0.68 2 0 2 C0 1.34 0 0.68 0 0 Z " fill="#D80E12" transform="translate(336,95)"/>
<path d="M0 0 C0.63989258 1.77050781 0.63989258 1.77050781 1 4 C0.13549805 5.83105469 0.13549805 5.83105469 -1.23828125 7.671875 C-1.72876953 8.33574219 -2.21925781 8.99960937 -2.72460938 9.68359375 C-3.24861328 10.36550781 -3.77261719 11.04742187 -4.3125 11.75 C-4.82490234 12.44738281 -5.33730469 13.14476562 -5.86523438 13.86328125 C-8.68734951 17.62364848 -8.68734951 17.62364848 -10 19 C-10.66 19 -11.32 19 -12 19 C-10.70369101 16.30326081 -9.2862657 13.81034386 -7.6171875 11.328125 C-7.17246094 10.66425781 -6.72773438 10.00039063 -6.26953125 9.31640625 C-5.80933594 8.63449219 -5.34914063 7.95257813 -4.875 7.25 C-4.40707031 6.55261719 -3.93914062 5.85523438 -3.45703125 5.13671875 C-2.30677705 3.42307474 -1.15366914 1.71134684 0 0 Z " fill="#FD6867" transform="translate(430,278)"/>
<path d="M0 0 C0.33 0 0.66 0 1 0 C1 5.28 1 10.56 1 16 C1.66 16 2.32 16 3 16 C3.2578125 23.734375 3.2578125 23.734375 1 28 C0.17961409 21.598406 -0.12754513 15.38697499 -0.0625 8.9375 C-0.05798828 8.07189453 -0.05347656 7.20628906 -0.04882812 6.31445312 C-0.03719913 4.20960461 -0.01927073 2.10479242 0 0 Z " fill="#FC2A29" transform="translate(159,195)"/>
<path d="M0 0 C0.33 0.66 0.66 1.32 1 2 C0.34644531 2.8353125 0.34644531 2.8353125 -0.3203125 3.6875 C-4.27102086 8.74987955 -8.1673472 13.84767921 -12 19 C-12.33 18.34 -12.66 17.68 -13 17 C-11.39933082 14.72662933 -9.79464807 12.45628343 -8.1875 10.1875 C-7.73568359 9.54490234 -7.28386719 8.90230469 -6.81835938 8.24023438 C-6.37685547 7.61826172 -5.93535156 6.99628906 -5.48046875 6.35546875 C-5.07723389 5.78465576 -4.67399902 5.21384277 -4.25854492 4.62573242 C-2.9528538 2.93909864 -1.53783772 1.47530811 0 0 Z " fill="#D51214" transform="translate(196,109)"/>
<path d="M0 0 C0 0.66 0 1.32 0 2 C-2.30595384 3.62946228 -4.60196707 5.1435897 -7 6.625 C-8.00160156 7.25535156 -8.00160156 7.25535156 -9.0234375 7.8984375 C-10.67831454 8.93864592 -12.33866288 9.97014051 -14 11 C-14.99 10.34 -15.98 9.68 -17 9 C-14.54481265 7.49462965 -12.0861548 5.99555574 -9.625 4.5 C-8.92632812 4.07074219 -8.22765625 3.64148438 -7.5078125 3.19921875 C-2.2265625 0 -2.2265625 0 0 0 Z " fill="#FC5D5F" transform="translate(238,74)"/>
<path d="M0 0 C4.88049925 3.9419417 9.0580583 8.11950075 13 13 C12.01 13 11.02 13 10 13 C9.67 12.34 9.34 11.68 9 11 C6.98330173 9.86649466 6.98330173 9.86649466 5 9 C5 8.01 5 7.02 5 6 C3.68 5.67 2.36 5.34 1 5 C0.67 3.35 0.34 1.7 0 0 Z " fill="#D90F13" transform="translate(404,97)"/>
<path d="M0 0 C-12.23665298 6.39784394 -12.23665298 6.39784394 -19 6 C-16.3927098 3.3927098 -13.4640743 2.51973213 -10.0625 1.3125 C-9.42892578 1.07466797 -8.79535156 0.83683594 -8.14257812 0.59179688 C-3.36446856 -1.12148952 -3.36446856 -1.12148952 0 0 Z " fill="#FD5755" transform="translate(365,338)"/>
<path d="M0 0 C4.09457279 1.3648576 5.71667285 4.21754285 8.1875 7.5625 C8.65091797 8.17802734 9.11433594 8.79355469 9.59179688 9.42773438 C10.73423225 10.94705565 11.86796157 12.47291627 13 14 C12.67 14.66 12.34 15.32 12 16 C6.68271976 11.23436843 3.15025385 6.40212879 0 0 Z " fill="#FE5D5E" transform="translate(222,229)"/>
<path d="M0 0 C0.72445313 0.47050781 1.44890625 0.94101563 2.1953125 1.42578125 C9.40010298 6.06820817 9.40010298 6.06820817 17 10 C16.34 10.66 15.68 11.32 15 12 C12.86698077 10.762248 10.74430401 9.51085175 8.625 8.25 C8.02171875 7.90195313 7.4184375 7.55390625 6.796875 7.1953125 C3.48192307 5.20634134 1.26386355 3.74103612 0 0 Z " fill="#FD5657" transform="translate(264,202)"/>
<path d="M0 0 C0.33 0.99 0.66 1.98 1 3 C-0.88751682 4.18007431 -2.78539195 5.34359173 -4.6875 6.5 C-5.74324219 7.1496875 -6.79898437 7.799375 -7.88671875 8.46875 C-10.9770971 9.98873534 -12.62703511 10.35043791 -16 10 C-13.10675957 7.69213612 -10.21289861 6.02673829 -6.875 4.4375 C-4.0908526 3.11151882 -2.1883503 2.1883503 0 0 Z " fill="#FC4547" transform="translate(344,204)"/>
<path d="M0 0 C0.66 0.33 1.32 0.66 2 1 C-5.98066298 9.20234807 -5.98066298 9.20234807 -13 10 C-9.28249221 5.79759989 -4.68339021 3.00217321 0 0 Z " fill="#DA1113" transform="translate(276,94)"/>
<path d="M0 0 C0.33 0.66 0.66 1.32 1 2 C-0.43359375 4.8203125 -0.43359375 4.8203125 -2.4375 8.125 C-3.09621094 9.22070312 -3.75492187 10.31640625 -4.43359375 11.4453125 C-4.95050781 12.28835938 -5.46742188 13.13140625 -6 14 C-6.83583327 11.62392051 -7.1842383 10.45550373 -6.22265625 8.078125 C-4.61132812 5.5390625 -4.61132812 5.5390625 -3 3 C-2.34 3 -1.68 3 -1 3 C-0.67 2.01 -0.34 1.02 0 0 Z " fill="#D90E12" transform="translate(432,272)"/>
<path d="M0 0 C2 3 2 3 1.5390625 6.35546875 C1.23742187 7.62003906 0.93578125 8.88460937 0.625 10.1875 C0.32851563 11.45980469 0.03203125 12.73210937 -0.2734375 14.04296875 C-0.51320313 15.01878906 -0.75296875 15.99460938 -1 17 C-1.66 17 -2.32 17 -3 17 C-2.01 11.39 -1.02 5.78 0 0 Z " fill="#FD7172" transform="translate(449,225)"/>
<path d="M0 0 C0.33 0 0.66 0 1 0 C1.25 6.625 1.25 6.625 -1 10 C-1.70164642 11.98799818 -2.37372872 13.98698517 -3 16 C-4.60725635 12.78548731 -4.05748185 9.56387464 -4 6 C-3.34 6 -2.68 6 -2 6 C-1.34 4.02 -0.68 2.04 0 0 Z " fill="#DC2220" transform="translate(168,158)"/>
<path d="M0 0 C2.77862859 3.47328574 4.98463473 7.0412468 7 11 C6.67 11.99 6.34 12.98 6 14 C3.03340143 10.44008172 0.618652 6.34777457 -1 2 C-0.67 1.34 -0.34 0.68 0 0 Z " fill="#F95F5D" transform="translate(430,125)"/>
<path d="M0 0 C3.39192363 0.59283621 5.2107757 1.76743189 7.75 4.0625 C8.67039062 4.88427734 8.67039062 4.88427734 9.609375 5.72265625 C10.29773438 6.35494141 10.29773438 6.35494141 11 7 C10.67 7.99 10.34 8.98 10 10 C8.33037631 8.52417192 6.6643694 7.04425109 5 5.5625 C4.071875 4.73878906 3.14375 3.91507812 2.1875 3.06640625 C1.465625 2.38449219 0.74375 1.70257813 0 1 C0 0.67 0 0.34 0 0 Z " fill="#FE8689" transform="translate(344,99)"/>
<path d="M0 0 C1.32 0 2.64 0 4 0 C2.4169423 4.2742558 -0.50568404 6.26531794 -4 9 C-4 7.68 -4 6.36 -4 5 C-3.34 5 -2.68 5 -2 5 C-1.67 4.01 -1.34 3.02 -1 2 C-0.34 2.33 0.32 2.66 1 3 C0.67 2.01 0.34 1.02 0 0 Z " fill="#DC090E" transform="translate(412,297)"/>
<path d="M0 0 C0.33 0 0.66 0 1 0 C1.375 2.25 1.375 2.25 1 5 C-1.75 7.125 -1.75 7.125 -5 9 C-6.34175973 9.98866506 -7.67896002 10.9838154 -9 12 C-7.56006357 8.78727751 -5.76981628 6.3793336 -3.4375 3.75 C-2.81746094 3.04359375 -2.19742187 2.3371875 -1.55859375 1.609375 C-1.04425781 1.07828125 -0.52992188 0.5471875 0 0 Z " fill="#D71214" transform="translate(386,235)"/>
<path d="M0 0 C0.66 0 1.32 0 2 0 C1.00956295 4.83628305 0.04301154 9.47618873 -2 14 C-2.33 14 -2.66 14 -3 14 C-2.48594831 9.03083364 -1.76615118 4.70973649 0 0 Z " fill="#FD7B78" transform="translate(168,152)"/>
<path d="M0 0 C0.66 0 1.32 0 2 0 C0.31326082 4.49797113 -1.81673892 8.72886302 -4 13 C-4.66 12.67 -5.32 12.34 -6 12 C-4.43358249 7.69235185 -2.31663844 3.93828536 0 0 Z " fill="#F96B68" transform="translate(181,126)"/>
<path d="M0 0 C0.66 0 1.32 0 2 0 C0.54955729 4.10958767 -1.51110752 7.43258745 -4 11 C-4.99 10.67 -5.98 10.34 -7 10 C-5.88321917 8.3278148 -4.75633648 6.66237197 -3.625 5 C-2.99851563 4.071875 -2.37203125 3.14375 -1.7265625 2.1875 C-1.15679687 1.465625 -0.58703125 0.74375 0 0 Z " fill="#FE9494" transform="translate(188,115)"/>
<path d="M0 0 C3.9036874 3.46994436 6.36588975 7.55224006 9 12 C8.34 12.66 7.68 13.32 7 14 C5.82508418 12.23462904 4.66031316 10.46250287 3.5 8.6875 C2.8503125 7.70136719 2.200625 6.71523437 1.53125 5.69921875 C0 3 0 3 0 0 Z " fill="#FB595A" transform="translate(355,107)"/>
<path d="M0 0 C0.763125 0.309375 1.52625 0.61875 2.3125 0.9375 C4.18789677 1.67893593 6.08684652 2.36228217 8 3 C8.33 4.98 8.66 6.96 9 9 C7.87105124 8.06725891 6.74699124 7.12859878 5.625 6.1875 C4.99851562 5.66542969 4.37203125 5.14335938 3.7265625 4.60546875 C2 3 2 3 0 0 Z " fill="#E00705" transform="translate(374,100)"/>
<path d="M0 0 C-2.94648416 2.94648416 -5.12807079 2.98323213 -9.25 3.0625 C-10.61125 3.0315625 -10.61125 3.0315625 -12 3 C-4.82142857 -1.78571429 -4.82142857 -1.78571429 0 0 Z M-5 3 C-5 6 -5 6 -5 6 Z " fill="#DB1314" transform="translate(265,66)"/>
<path d="M0 0 C1.98 0 3.96 0 6 0 C3.2180632 3.27286682 -0.27954067 4.96427697 -4 7 C-3.6875 5.0625 -3.6875 5.0625 -3 3 C-2.01 2.67 -1.02 2.34 0 2 C0 1.34 0 0.68 0 0 Z " fill="#E2090D" transform="translate(383,322)"/>
<path d="M0 0 C0.66 0.33 1.32 0.66 2 1 C1.2890625 2.953125 1.2890625 2.953125 0 5 C-2.1640625 5.609375 -2.1640625 5.609375 -4.625 5.75 C-5.44226563 5.80671875 -6.25953125 5.8634375 -7.1015625 5.921875 C-7.72804687 5.94765625 -8.35453125 5.9734375 -9 6 C-6.30165 3.1324997 -3.64316175 1.5502816 0 0 Z " fill="#DD1313" transform="translate(244,72)"/>
<path d="M0 0 C0.66 0.66 1.32 1.32 2 2 C0.54550599 3.0055761 -0.91372443 4.00430435 -2.375 5 C-3.59316406 5.8353125 -3.59316406 5.8353125 -4.8359375 6.6875 C-7 8 -7 8 -9 8 C-9 7.34 -9 6.68 -9 6 C-7.03125 4.4921875 -7.03125 4.4921875 -4.5 2.875 C-3.6646875 2.33617187 -2.829375 1.79734375 -1.96875 1.2421875 C-1.3190625 0.83226562 -0.669375 0.42234375 0 0 Z " fill="#FD6160" transform="translate(362,256)"/>
<path d="M0 0 C4.42857143 5.14285714 4.42857143 5.14285714 5 9 C4.01 9.33 3.02 9.66 2 10 C-0.4294516 6.3558226 -0.16179575 4.28758728 0 0 Z " fill="#DD0A0E" transform="translate(428,126)"/>
<path d="M0 0 C2.9555377 2.75170751 5.11563315 5.41970299 7 9 C7 9.66 7 10.32 7 11 C6.34 11 5.68 11 5 11 C3.7109375 9.35546875 3.7109375 9.35546875 2.375 7.1875 C1.92898437 6.47980469 1.48296875 5.77210938 1.0234375 5.04296875 C0 3 0 3 0 0 Z " fill="#FE7F7C" transform="translate(180,277)"/>
<path d="M0 0 C1.31611677 0.95336021 2.62778961 1.91285774 3.9375 2.875 C4.66839844 3.40867188 5.39929688 3.94234375 6.15234375 4.4921875 C8 6 8 6 9 8 C6.29068581 7.84518205 4.53415961 7.51827919 2.5546875 5.59765625 C1.32320358 4.10228292 0.1570163 2.5537076 -1 1 C-0.67 0.67 -0.34 0.34 0 0 Z " fill="#FA494B" transform="translate(235,244)"/>
<path d="M0 0 C1 2 1 2 0.22265625 4.3828125 C-0.16019531 5.28773437 -0.54304687 6.19265625 -0.9375 7.125 C-1.31777344 8.03507813 -1.69804687 8.94515625 -2.08984375 9.8828125 C-2.39019531 10.58148438 -2.69054687 11.28015625 -3 12 C-3.66 11.34 -4.32 10.68 -5 10 C-4.35699811 8.51960029 -3.71051501 7.04071218 -3.0625 5.5625 C-2.70285156 4.73878906 -2.34320313 3.91507812 -1.97265625 3.06640625 C-1 1 -1 1 0 0 Z " fill="#FC6B6B" transform="translate(247,122)"/>
<path d="M0 0 C1.41623216 -0.05447047 2.83308191 -0.09300508 4.25 -0.125 C5.03890625 -0.14820312 5.8278125 -0.17140625 6.640625 -0.1953125 C9.20731941 0.0171622 10.7916067 0.71345895 13 2 C13 2.33 13 2.66 13 3 C11.39504433 2.88557539 9.79101881 2.75805306 8.1875 2.625 C7.29417969 2.55539063 6.40085937 2.48578125 5.48046875 2.4140625 C3 2 3 2 0 0 Z " fill="#FD9391" transform="translate(314,87)"/>
<path d="M0 0 C0.33 0 0.66 0 1 0 C1.22245393 1.60226955 1.42746669 3.20696767 1.625 4.8125 C1.74101562 5.70582031 1.85703125 6.59914062 1.9765625 7.51953125 C2 10 2 10 0 13 C-0.19466332 11.20909747 -0.38051213 9.41723495 -0.5625 7.625 C-0.66691406 6.62726563 -0.77132813 5.62953125 -0.87890625 4.6015625 C-1 2 -1 2 0 0 Z " fill="#FB5658" transform="translate(450,179)"/>
<path d="M0 0 C0 0.66 0 1.32 0 2 C-1.43333021 2.39063507 -2.87192679 2.76198474 -4.3125 3.125 C-5.51326172 3.43824219 -5.51326172 3.43824219 -6.73828125 3.7578125 C-9 4 -9 4 -12 2 C-10.56342755 1.66269158 -9.12569907 1.33030409 -7.6875 1 C-6.88699219 0.814375 -6.08648437 0.62875 -5.26171875 0.4375 C-3 0 -3 0 0 0 Z " fill="#FA575A" transform="translate(273,61)"/>
<path d="M0 0 C3.7952131 1.49097658 5.61042731 3.75700849 8 7 C5 7 5 7 2.3125 4.625 C0 2 0 2 0 0 Z " fill="#F25859" transform="translate(198,302)"/>
<path d="M0 0 C1.32 0.33 2.64 0.66 4 1 C4.144375 1.9075 4.28875 2.815 4.4375 3.75 C4.86409473 6.21476956 5.35074221 8.58847107 6 11 C0 3.6 0 3.6 0 0 Z " fill="#DC080A" transform="translate(387,113)"/>
<path d="M0 0 C2.97 0.99 5.94 1.98 9 3 C9 3.66 9 4.32 9 5 C5.7 4.01 2.4 3.02 -1 2 C-0.67 1.34 -0.34 0.68 0 0 Z " fill="#FD6D6E" transform="translate(327,89)"/>
<path d="M0 0 C2.64 1.98 5.28 3.96 8 6 C6.68 6.33 5.36 6.66 4 7 C1.03460313 4.91323924 0.92341871 3.69367485 0 0 Z " fill="#DE070A" transform="translate(234,246)"/>
<path d="M0 0 C0.33 0 0.66 0 1 0 C1.33 2.31 1.66 4.62 2 7 C1.01 7.33 0.02 7.66 -1 8 C-1 9.32 -1 10.64 -1 12 C-1.66 12 -2.32 12 -3 12 C-2.01 8.04 -1.02 4.08 0 0 Z " fill="#D70D10" transform="translate(402,200)"/>
<path d="M0 0 C4.05606165 0.46800711 7.46588679 0.87953208 11 3 C11 3.66 11 4.32 11 5 C6.69159287 3.92289822 3.36423277 2.96052484 0 0 Z " fill="#D71015" transform="translate(239,332)"/>
<path d="M0 0 C0.33 0 0.66 0 1 0 C1.3125 2.8125 1.3125 2.8125 1 6 C-1.5 7.875 -1.5 7.875 -4 9 C-2.80100302 5.9168649 -1.52299523 2.93720508 0 0 Z " fill="#DC0E0E" transform="translate(393,223)"/>
<path d="M0 0 C0.33 0 0.66 0 1 0 C1.07654536 4.51617599 1.10228696 8.59085217 0 13 C-2 10 -2 10 -1.7578125 7.51953125 C-1.54898437 6.62621094 -1.34015625 5.73289063 -1.125 4.8125 C-0.92132813 3.91144531 -0.71765625 3.01039063 -0.5078125 2.08203125 C-0.34023438 1.39496094 -0.17265625 0.70789063 0 0 Z " fill="#FB4443" transform="translate(451,215)"/>
<path d="M0 0 C1.90318884 2.85478326 2.4619099 4.41941308 3.125 7.6875 C3.29257812 8.49574219 3.46015625 9.30398437 3.6328125 10.13671875 C3.75398438 10.75160156 3.87515625 11.36648437 4 12 C1.02449969 8.9315153 0.03525487 7.53763669 -0.25 3.1875 C-0.1675 2.135625 -0.085 1.08375 0 0 Z " fill="#D21312" transform="translate(441,152)"/>
<path d="M0 0 C3 1 3 1 4.75 3.375 C6 6 6 6 5 9 C4.16094435 7.87926138 3.32892169 6.75325453 2.5 5.625 C2.0359375 4.99851562 1.571875 4.37203125 1.09375 3.7265625 C0 2 0 2 0 0 Z " fill="#FE8384" transform="translate(424,118)"/>
<path d="M0 0 C0.66 0.33 1.32 0.66 2 1 C1.360625 1.268125 0.72125 1.53625 0.0625 1.8125 C-2.33131686 2.88667752 -2.33131686 2.88667752 -3 6 C-3.66 6 -4.32 6 -5 6 C-5 5.34 -5 4.68 -5 4 C-5.66 3.67 -6.32 3.34 -7 3 C-4.69631264 1.93347808 -2.35981813 0.93578995 0 0 Z " fill="#E00507" transform="translate(270,63)"/>
<path d="M0 0 C0.99 0.33 1.98 0.66 3 1 C-0.465 3.97 -0.465 3.97 -4 7 C-3.04065919 3.16263678 -2.76390737 2.40339772 0 0 Z " fill="#FF9190" transform="translate(203,98)"/>
<path d="M0 0 C2.125 0.9375 2.125 0.9375 4 2 C-2.625 5.125 -2.625 5.125 -6 4 C-4.68 3.67 -3.36 3.34 -2 3 C-2 2.34 -2 1.68 -2 1 C-1.34 0.67 -0.68 0.34 0 0 Z " fill="#DB0609" transform="translate(277,74)"/>
<path d="M0 0 C-4.43076923 3.07692308 -4.43076923 3.07692308 -7.3125 2.6875 C-8.1478125 2.3471875 -8.1478125 2.3471875 -9 2 C-3.375 -1.125 -3.375 -1.125 0 0 Z " fill="#FD6C7A" transform="translate(365,338)"/>
<path d="M0 0 C6.875 3.75 6.875 3.75 8 6 C6.35 6 4.7 6 3 6 C2.67 5.01 2.34 4.02 2 3 C1.34 2.67 0.68 2.34 0 2 C0 1.34 0 0.68 0 0 Z " fill="#D90B0D" transform="translate(244,255)"/>
<path d="M0 0 C0.99 0.33 1.98 0.66 3 1 C-2.75 6 -2.75 6 -5 6 C-5 5.34 -5 4.68 -5 4 C-2.6875 1.8125 -2.6875 1.8125 0 0 Z " fill="#FF797B" transform="translate(368,251)"/>
<path d="M0 0 C1.98 0 3.96 0 6 0 C6.66 1.65 7.32 3.3 8 5 C4.62496331 3.8141763 2.35277269 2.72426311 0 0 Z " fill="#E0090E" transform="translate(266,203)"/>
<path d="M0 0 C0.99 0.33 1.98 0.66 3 1 C2.1875 2.9375 2.1875 2.9375 1 5 C0.01 5.33 -0.98 5.66 -2 6 C-1.49396008 3.83125748 -1.00016187 2.00032373 0 0 Z " fill="#DE0C0E" transform="translate(350,195)"/>
<path d="M0 0 C0.66 0.33 1.32 0.66 2 1 C0.69593116 3.01920337 -0.63823419 5.01924973 -2 7 C-2.33 7 -2.66 7 -3 7 C-3.1875 4.625 -3.1875 4.625 -3 2 C-2.01 1.34 -1.02 0.68 0 0 Z " fill="#DB0A0D" transform="translate(359,186)"/>
<path d="M0 0 C0.33 0 0.66 0 1 0 C1.25 2.75 1.25 2.75 1 6 C-1 8.375 -1 8.375 -3 10 C-2.01 6.7 -1.02 3.4 0 0 Z " fill="#D61718" transform="translate(172,147)"/>
<path d="M0 0 C0.66 0 1.32 0 2 0 C3.85776765 3.13498292 4.20140476 5.37471432 4 9 C1.49701566 6.06171403 0.53069061 3.82097239 0 0 Z " fill="#FD7978" transform="translate(436,138)"/>
<path d="M0 0 C1.5 1.125 1.5 1.125 3 3 C3.1875 6.1875 3.1875 6.1875 3 9 C2.01 8.34 1.02 7.68 0 7 C-0.1875 3.375 -0.1875 3.375 0 0 Z " fill="#E10910" transform="translate(362,121)"/>
<path d="M0 0 C0.66 0.33 1.32 0.66 2 1 C-1.465 3.97 -1.465 3.97 -5 7 C-3.92643531 2.70574125 -3.4915227 2.25259529 0 0 Z " fill="#FF9492" transform="translate(263,101)"/>
<path d="M0 0 C2.31 0.66 4.62 1.32 7 2 C7.33 3.32 7.66 4.64 8 6 C4.63408134 4.55746343 2.48952921 2.66735273 0 0 Z " fill="#DE080A" transform="translate(361,89)"/>
<path d="M0 0 C3.37503669 1.1858237 5.64722731 2.27573689 8 5 C4.62537285 4.45276317 2.91765 3.9451 0 2 C0 1.34 0 0.68 0 0 Z " fill="#FB5655" transform="translate(387,82)"/>
</svg>
